<svg xmlns="http://www.w3.org/2000/svg" viewBox="0 0 64 64">
  <g fill="none" stroke-linecap="round" stroke-linejoin="round" stroke-width="2.5">
    <g stroke="#FFFFFF">
      <circle cx="32" cy="32" r="18"/>
      <path d="M50 32 L54 32"/>
      <path d="M44.73 44.73 L47.56 47.56"/>
      <path d="M32 50 L32 54"/>
      <path d="M19.27 44.73 L16.44 47.56"/>
      <path d="M14 32 L10 32"/>
      <path d="M19.27 19.27 L16.44 16.44"/>
      <path d="M32 14 L32 10"/>
      <path d="M44.73 19.27 L47.56 16.44"/>
    </g>
    <g>
      <g stroke="#FFFFFF">
        <path d="M24 26 L32 24 L40 32 L32 40 L24 38 L24 26"/>
        <path d="M32 24 L32 18"/>
        <path d="M40 32 L46 32"/>
        <path d="M32 40 L32 46"/>
      </g>
      <g>
        <circle cx="24" cy="26" r="2.6" stroke="#FFFFFF"/>
        <circle cx="24" cy="38" r="2.6" stroke="#FFFFFF"/>
        <circle cx="32" cy="40" r="2.6" stroke="#FFFFFF"/>
        <circle cx="32" cy="24" r="2.6" stroke="#3b82f6"/>
        <circle cx="40" cy="32" r="2.6" stroke="#ff6600"/>
      </g>
    </g>
  </g>
</svg>
