<svg xmlns="http://www.w3.org/2000/svg" viewBox="0 0 64 64">
  <g fill="none" stroke-linecap="round" stroke-linejoin="round" stroke-width="2.5">
    <g stroke="#FFFFFF">
      <path d="M14 18h28a8 8 0 0 1 8 8v8a8 8 0 0 1-8 8H28l-8 6v-6h-6a8 8 0 0 1-8-8v-8a8 8 0 0 1 8-8z"/>
      <path d="M20 26h10"/>
      <path d="M20 30h14"/>
    </g>
    <g stroke="#ff6600">
      <rect x="36" y="22" width="10" height="8" rx="2"/>
      <path d="M37 28l3-3 2 2 1-1"/>
    </g>
    <g stroke="#3b82f6">
      <rect x="26.5" y="22" width="5" height="8" rx="2.5"/>
      <path d="M29 30v3"/>
      <path d="M26 33h6"/>
    </g>
  </g>
</svg>
